<svg width="28" height="28" viewBox="0 0 28 28" fill="none" xmlns="http://www.w3.org/2000/svg">
<path d="M13.1933 3.5C13.0309 3.50001 12.8717 3.54519 12.7336 3.63049C12.5954 3.71579 12.4837 3.83784 12.411 3.983L9.625 9.555V24.5H20.6307C21.6737 24.5001 22.6824 24.1275 23.475 23.4495C24.2675 22.7715 24.7918 21.8327 24.9532 20.8023L26.0855 13.5853C26.1441 13.2108 26.121 12.828 26.0176 12.4633C25.9142 12.0986 25.733 11.7606 25.4866 11.4726C25.2402 11.1846 24.9343 10.9534 24.5899 10.7949C24.2456 10.6363 23.8711 10.5542 23.492 10.5543H17.7118L17.9777 8.41925C18.0549 7.80367 18.0003 7.17872 17.8175 6.58587C17.6347 5.99301 17.3279 5.44582 16.9174 4.9806C16.507 4.51538 16.0023 4.14277 15.4369 3.8875C14.8714 3.63223 14.2581 3.50014 13.6378 3.5H13.1933ZM7.875 24.5V10.5543H4.375C4.14294 10.5543 3.92038 10.6464 3.75628 10.8105C3.59219 10.9746 3.5 11.1972 3.5 11.4293V23.625C3.5 23.8571 3.59219 24.0796 3.75628 24.2437C3.92038 24.4078 4.14294 24.5 4.375 24.5H7.875Z" fill="white"/>
</svg>
