<svg width="28" height="28" viewBox="0 0 28 28" fill="none" xmlns="http://www.w3.org/2000/svg">
<path fill-rule="evenodd" clip-rule="evenodd" d="M5.25 2.625C5.25 2.39294 5.34219 2.17038 5.50628 2.00628C5.67038 1.84219 5.89294 1.75 6.125 1.75H21.875C22.1071 1.75 22.3296 1.84219 22.4937 2.00628C22.6578 2.17038 22.75 2.39294 22.75 2.625V11.375H21V3.5H7V24.5H12.25V26.25H6.125C5.89294 26.25 5.67038 26.1578 5.50628 25.9937C5.34219 25.8296 5.25 25.6071 5.25 25.375V2.625ZM19.6228 8.27575L13.4977 14.4008C13.3337 14.5648 13.1111 14.6569 12.8791 14.6569C12.6471 14.6569 12.4246 14.5648 12.2605 14.4008L8.7605 10.9008L9.99775 9.66175L12.8783 12.544L18.3855 7.03675L19.6228 8.27575ZM16.8087 15.036C17.3425 14.3447 18.1807 14 19.25 14C20.3175 14 21.1575 14.3447 21.6913 15.036C22.1935 15.6835 22.3125 16.4903 22.3125 17.171C22.3125 17.8675 22.1865 18.5675 22.0762 19.1117L21.994 19.502C21.9548 19.6847 21.9181 19.8679 21.8838 20.0515L21.875 20.1268V21H23.625C23.8571 21 24.0796 21.0922 24.2437 21.2563C24.4078 21.4204 24.5 21.6429 24.5 21.875V25.375C24.5 25.6071 24.4078 25.8296 24.2437 25.9937C24.0796 26.1578 23.8571 26.25 23.625 26.25H14.875C14.6429 26.25 14.4204 26.1578 14.2563 25.9937C14.0922 25.8296 14 25.6071 14 25.375V21.875C14 21.6429 14.0922 21.4204 14.2563 21.2563C14.4204 21.0922 14.6429 21 14.875 21H16.625V20.1268L16.6162 20.0515L16.5742 19.8205L16.506 19.502L16.4238 19.1117C16.2806 18.4749 16.2015 17.8253 16.1875 17.1727C16.1875 16.4902 16.3065 15.6853 16.8087 15.0378" fill="white"/>
</svg>
