<svg width="28" height="28" viewBox="0 0 28 28" fill="none" xmlns="http://www.w3.org/2000/svg">
<path fill-rule="evenodd" clip-rule="evenodd" d="M12.0278 1.75004H15.9302C16.5182 1.74129 17.094 1.93379 17.5577 2.29604C18.025 2.66354 18.3488 3.17979 18.4678 3.76079L18.809 5.39704C18.9572 5.47638 19.103 5.55804 19.2465 5.64204L20.9002 5.09954C21.2405 4.98974 21.5997 4.95156 21.9554 4.9874C22.3111 5.02324 22.6555 5.13232 22.967 5.30779C23.352 5.52479 23.6757 5.83629 23.9015 6.21779L25.8702 9.46579C26.1885 9.96908 26.314 10.5705 26.2236 11.1591C26.1333 11.7476 25.8331 12.2837 25.3785 12.6683H25.375L24.0765 13.776V14.2275L25.3592 15.3703C25.8051 15.7486 26.102 16.273 26.1972 16.8499C26.2924 17.4268 26.1796 18.0188 25.879 18.5203L23.9715 21.7753V21.7788C23.7445 22.1586 23.4228 22.473 23.0378 22.6911C22.6528 22.9092 22.2177 23.0236 21.7752 23.023C21.5016 23.0245 21.2294 22.9832 20.9685 22.9005L20.9597 22.897L19.32 22.3563C19.1742 22.4426 19.026 22.5249 18.8755 22.603L18.536 24.2375C18.4162 24.8188 18.0936 25.3386 17.626 25.704C17.1611 26.0678 16.5852 26.2606 15.995 26.25H12.061C11.472 26.2598 10.8975 26.067 10.4335 25.704C9.96622 25.339 9.64372 24.8199 9.5235 24.2393L9.18225 22.6013C9.03449 22.5231 8.88862 22.4414 8.74475 22.3563L7.091 22.8988C6.75079 23.0086 6.39153 23.0468 6.03584 23.0109C5.68014 22.9751 5.33572 22.866 5.02425 22.6905C4.63873 22.4754 4.31647 22.1628 4.08975 21.784L2.11925 18.529C1.81371 18.0359 1.69167 17.4509 1.77456 16.8768C1.85745 16.3027 2.13997 15.7761 2.5725 15.3895L3.87975 13.741L2.632 12.6298C2.1856 12.251 1.88841 11.7259 1.79352 11.1482C1.69863 10.5705 1.81222 9.97794 2.114 9.47629L2.1175 9.47279L4.08975 6.21779C4.31345 5.84152 4.63068 5.52952 5.01061 5.31211C5.39055 5.0947 5.82027 4.97927 6.258 4.97704C6.52167 4.96304 6.78184 4.98812 7.0385 5.05229L7.077 5.06279L8.71325 5.63854C8.85675 5.55454 9.00259 5.47404 9.15075 5.39704L9.49025 3.76254C9.61009 3.18126 9.93262 2.6615 10.4003 2.29604C10.8623 1.93379 11.4398 1.74129 12.0278 1.75004ZM14 10.5C13.0717 10.5 12.1815 10.8688 11.5251 11.5252C10.8688 12.1815 10.5 13.0718 10.5 14C10.5 14.9283 10.8688 15.8185 11.5251 16.4749C12.1815 17.1313 13.0717 17.5 14 17.5C14.9283 17.5 15.8185 17.1313 16.4749 16.4749C17.1313 15.8185 17.5 14.9283 17.5 14C17.5 13.0718 17.1313 12.1815 16.4749 11.5252C15.8185 10.8688 14.9283 10.5 14 10.5ZM8.75 14C8.75 12.6077 9.30313 11.2723 10.2877 10.2877C11.2723 9.30316 12.6076 8.75004 14 8.75004C15.3924 8.75004 16.7277 9.30316 17.7123 10.2877C18.6969 11.2723 19.25 12.6077 19.25 14C19.25 15.3924 18.6969 16.7278 17.7123 17.7124C16.7277 18.6969 15.3924 19.25 14 19.25C12.6076 19.25 11.2723 18.6969 10.2877 17.7124C9.30313 16.7278 8.75 15.3924 8.75 14Z" fill="white"/>
</svg>
